<?xml version="1.0" encoding="UTF-8"?>
<svg id="Layer_2" data-name="Layer 2" xmlns="http://www.w3.org/2000/svg" viewBox="0 0 706.22 736.65">
  <defs>
    <style>
      .cls-1 {
        fill: #fff;
        stroke-width: 0px;
      }
    </style>
  </defs>
  <g id="Layer_1-2" data-name="Layer 1">
    <path class="cls-1" d="M315.71,701.57H70.16c-38.75,0-70.16-31.41-70.16-70.16L.35,140.31c0-38.59,30.87-70.16,69.81-70.16h35.08v-35.08C105.24,15.79,121.02,0,140.31,0s35.08,15.79,35.08,35.08v35.08h280.63v-35.08c0-19.29,15.79-35.08,35.08-35.08s35.08,15.79,35.08,35.08v35.08h35.08c38.59,0,70.16,31.57,70.16,70.16v210.47h-70.16v-70.16H70.16v350.79h245.55v70.16ZM671.06,525.83l24.91-24.91c13.66-13.63,13.68-35.75.05-49.41-.02-.02-.03-.03-.05-.05l-24.91-24.91c-13.63-13.66-35.75-13.68-49.41-.05-.02.02-.03.03-.05.05l-24.91,24.91,74.37,74.37ZM646.15,550.74l-175.74,175.74c-6.31,6.31-15.43,10.17-24.56,10.17h-42.45c-9.82,0-17.54-7.72-17.54-17.54v-42.45c0-9.47,3.86-18.24,10.17-24.91l175.74-175.74,74.37,74.72Z"/>
  </g>
</svg>